<?xml version="1.0" standalone="no"?>
<!DOCTYPE svg PUBLIC "-//W3C//DTD SVG 20010904//EN"
 "http://www.w3.org/TR/2001/REC-SVG-20010904/DTD/svg10.dtd">
<svg version="1.0" xmlns="http://www.w3.org/2000/svg"
 width="4352.000000pt" height="3371.000000pt" viewBox="0 0 4352.000000 3371.000000"
 preserveAspectRatio="xMidYMid meet">
<metadata>
Created by potrace 1.16, written by Peter Selinger 2001-2019
</metadata>
<g transform="translate(0.000000,3371.000000) scale(0.100000,-0.100000)"
fill="#000000" stroke="none">
<path d="M26319 29647 c-131 -230 -386 -751 -423 -864 -35 -106 -17 -227 47
-310 50 -65 466 -413 663 -555 356 -255 686 -398 1120 -487 219 -45 816 -124
890 -118 79 6 142 35 197 90 48 48 47 45 227 437 168 365 160 348 239 515 l71
150 -28 7 c-15 3 -220 30 -457 58 -1121 134 -1143 138 -1300 214 -134 66 -101
39 -982 778 l-211 177 -53 -92z"/>
<path d="M21255 25223 c-313 -37 -658 -173 -912 -360 -276 -202 -446 -453
-663 -978 -152 -367 -192 -459 -271 -620 -291 -594 -699 -1055 -1317 -1487
-87 -61 -299 -198 -472 -306 -508 -316 -706 -452 -911 -630 -116 -99 -250
-237 -332 -340 -448 -560 -515 -1239 -188 -1907 119 -242 247 -418 481 -659
229 -236 452 -421 690 -574 134 -86 412 -225 555 -278 118 -43 323 -97 450
-118 172 -29 472 -46 532 -30 27 7 30 37 38 354 23 961 144 1872 326 2453 104
332 268 647 426 818 104 111 273 207 456 257 44 12 103 16 207 17 138 0 186
-7 274 -41 36 -14 126 386 240 1071 25 149 50 308 56 354 l10 85 -38 29 c-130
104 -280 297 -358 465 -38 81 -39 83 -69 76 -88 -20 -169 10 -242 90 -141 154
-173 414 -68 551 48 64 154 87 226 49 27 -13 39 -14 70 -5 113 34 324 231 476
442 114 159 269 420 384 644 l97 190 69 3 c189 9 403 -50 559 -153 224 -149
383 -420 450 -765 10 -52 19 -97 21 -99 1 -2 25 6 52 18 63 27 100 27 141 -2
52 -34 73 -79 78 -166 9 -149 -49 -294 -160 -404 l-69 -68 -10 -92 c-21 -193
-85 -395 -176 -550 -51 -87 -139 -202 -194 -253 -40 -37 -162 -130 -178 -135
-12 -4 -22 -112 -61 -629 -12 -151 -32 -407 -46 -569 -28 -345 -29 -404 -8
-468 30 -93 114 -250 216 -408 97 -149 245 -390 315 -514 l30 -53 66 118 c135
244 196 404 241 629 94 475 228 1520 261 2030 3 55 8 116 10 135 12 106 26
518 21 595 -26 342 -92 755 -160 987 -124 423 -360 758 -689 979 -232 155
-488 231 -770 228 -73 -1 -145 -4 -162 -6z"/>
<path d="M30075 20394 c-308 -82 -339 -96 -388 -176 -32 -52 -30 -35 -67 -568
-11 -162 -23 -322 -25 -355 -5 -61 -48 -658 -85 -1185 -11 -162 -22 -322 -25
-355 -4 -53 -13 -177 -30 -425 -3 -41 -8 -100 -10 -130 -3 -30 -10 -125 -15
-210 -14 -208 -24 -350 -65 -915 -40 -555 -50 -702 -65 -915 -5 -85 -12 -180
-15 -210 -2 -30 -7 -93 -10 -140 -3 -47 -8 -111 -11 -144 l-6 -59 43 6 c24 4
150 16 279 27 129 12 239 22 245 24 5 1 21 157 36 347 15 189 43 553 63 809
20 256 43 548 51 650 8 102 26 329 40 505 14 176 27 349 30 385 3 36 14 178
25 315 11 138 31 394 44 570 14 176 35 439 46 585 18 235 50 637 65 835 4 39
8 88 10 110 2 22 11 144 20 270 20 271 31 320 87 381 22 24 34 44 27 43 -8 0
-140 -34 -294 -75z"/>
<path d="M8920 16308 c0 -7 8 -64 17 -126 l17 -114 30 6 c69 14 217 18 302 7
170 -21 329 -92 444 -198 66 -62 100 -75 100 -41 0 7 -29 52 -65 100 -147 195
-343 308 -630 363 -96 19 -215 20 -215 3z"/>
<path d="M27675 14073 c-236 -8 -491 -25 -874 -59 -1176 -104 -2406 -353
-3586 -726 -88 -28 -383 -124 -655 -214 -272 -90 -498 -164 -502 -164 -5 0 -8
152 -8 338 l0 339 -542 6 c-299 4 -871 9 -1273 12 -401 3 -839 8 -971 10
l-241 6 -6 -38 c-30 -188 -44 -878 -24 -1228 28 -511 146 -1126 292 -1530 190
-526 438 -860 761 -1026 l94 -49 1593 0 1593 0 114 39 c604 204 1287 525 2070
972 178 101 269 146 436 213 551 222 986 362 1056 340 53 -16 48 -125 -18
-409 -105 -448 -436 -1450 -864 -2610 -29 -77 -73 -198 -100 -270 -26 -71
-102 -274 -168 -450 -66 -176 -122 -326 -124 -334 -3 -15 61 -37 512 -176 419
-129 1170 -357 1184 -359 5 0 29 49 53 109 91 230 363 940 463 1208 18 48 36
87 40 87 4 0 10 -15 12 -32 3 -18 28 -170 56 -338 28 -168 56 -343 63 -389
l12 -83 486 5 c334 3 540 10 659 21 154 15 296 37 307 48 21 20 26 2822 6
3348 -49 1336 -165 2271 -345 2786 -94 269 -200 426 -327 487 -194 91 -620
129 -1234 110z"/>
<path d="M37383 13077 c-117 -46 -153 -65 -153 -78 0 -26 21 -69 34 -69 24 0
318 124 323 136 6 17 -25 74 -40 73 -6 0 -81 -28 -164 -62z"/>
<path d="M37450 12911 c-128 -51 -145 -61 -148 -83 -2 -13 5 -34 15 -47 l18
-22 150 61 c83 34 154 65 159 70 16 15 -7 75 -29 77 -11 1 -85 -24 -165 -56z"/>
<path d="M36862 12944 c-14 -9 -22 -26 -22 -42 0 -15 87 -246 193 -512 107
-267 281 -703 387 -970 106 -267 197 -491 203 -497 13 -18 62 -16 81 3 9 8 16
25 16 36 0 11 -110 295 -244 632 -134 336 -308 773 -386 971 -79 198 -152 368
-163 378 -24 21 -36 21 -65 1z"/>
<path d="M36620 12845 c-7 -8 -12 -25 -12 -38 0 -12 144 -382 320 -822 347
-869 338 -850 396 -812 17 12 26 26 26 44 0 14 -70 202 -156 417 -85 215 -228
573 -317 796 -88 223 -165 411 -170 418 -13 17 -72 15 -87 -3z"/>
<path d="M37525 12748 c-82 -32 -154 -63 -159 -68 -14 -14 13 -80 34 -80 16 0
159 54 283 107 20 9 37 22 37 30 0 19 -29 73 -38 72 -4 -1 -74 -28 -157 -61z"/>
<path d="M36392 12758 c-7 -7 -12 -23 -12 -37 0 -29 765 -1958 785 -1980 16
-17 60 -18 80 -1 8 7 15 24 15 38 0 14 -96 266 -214 561 -118 295 -292 732
-387 971 -95 239 -177 441 -182 448 -12 15 -69 16 -85 0z"/>
<path d="M36162 12668 c-7 -7 -12 -23 -12 -37 0 -14 136 -367 302 -784 261
-656 306 -760 327 -768 28 -11 66 9 76 39 3 13 -103 293 -296 778 -166 418
-307 765 -312 772 -12 15 -69 16 -85 0z"/>
<path d="M37590 12581 c-79 -32 -149 -65 -154 -74 -11 -18 10 -77 28 -77 16 0
308 118 319 129 11 11 -19 81 -35 81 -7 -1 -78 -27 -158 -59z"/>
<path d="M37655 12414 c-77 -31 -146 -61 -152 -68 -10 -9 -10 -18 -1 -44 7
-17 18 -34 24 -36 13 -5 302 108 318 124 16 15 -7 75 -29 77 -11 1 -83 -23
-160 -53z"/>
<path d="M37721 12247 c-85 -34 -156 -68 -159 -75 -7 -21 19 -72 37 -72 34 0
321 122 321 137 0 18 -28 73 -38 72 -4 0 -76 -28 -161 -62z"/>
<path d="M37783 12078 c-163 -64 -166 -68 -141 -123 6 -14 16 -25 22 -25 15 0
309 119 319 129 12 11 -19 81 -35 81 -7 -1 -82 -28 -165 -62z"/>
<path d="M37855 11914 c-77 -31 -146 -61 -153 -68 -14 -14 1 -71 21 -79 18 -7
318 114 324 130 8 21 -18 73 -36 72 -9 0 -79 -25 -156 -55z"/>
<path d="M37921 11746 c-85 -34 -156 -67 -159 -74 -7 -22 19 -72 38 -72 25 0
291 108 309 125 11 11 12 19 2 44 -7 16 -18 32 -24 34 -7 2 -81 -23 -166 -57z"/>
<path d="M37983 11579 c-162 -64 -165 -66 -143 -123 5 -14 14 -26 20 -26 6 0
81 28 166 61 120 48 154 65 154 80 0 29 -19 69 -32 68 -7 0 -82 -27 -165 -60z"/>
<path d="M38055 11414 c-77 -30 -146 -61 -153 -68 -15 -14 1 -71 22 -79 21 -8
320 117 324 134 5 27 -17 69 -35 69 -10 0 -81 -25 -158 -56z"/>
<path d="M39143 11432 c-6 -4 -60 -77 -120 -162 -60 -85 -337 -480 -617 -878
-279 -398 -506 -725 -504 -726 1 -2 48 -28 103 -59 55 -30 118 -69 139 -86
l38 -31 62 88 c35 48 179 254 322 457 143 204 366 521 496 705 356 507 361
515 354 536 -7 20 -226 164 -248 164 -7 0 -18 -4 -25 -8z"/>
<path d="M38122 11248 c-85 -34 -156 -67 -159 -75 -8 -21 17 -73 36 -73 23 0
293 109 310 126 13 12 13 18 -2 49 -9 19 -20 35 -24 34 -5 0 -77 -28 -161 -61z"/>
<path d="M6810 10830 c-116 -16 -234 -63 -323 -127 l-48 -35 33 -31 c44 -41
379 -359 498 -473 52 -50 118 -112 145 -137 28 -25 79 -74 115 -109 36 -35
158 -151 270 -257 266 -253 348 -331 505 -481 72 -68 166 -158 210 -200 44
-41 139 -131 210 -200 313 -299 642 -613 713 -679 20 -19 78 -73 127 -121 50
-47 189 -180 310 -295 121 -115 267 -254 325 -309 58 -56 188 -180 289 -276
102 -96 201 -191 221 -210 35 -35 314 -298 418 -395 29 -27 58 -49 63 -47 6 1
8 -2 5 -7 -7 -11 161 -167 175 -163 6 1 8 -1 5 -6 -8 -14 150 -166 165 -157 7
5 10 4 6 -2 -8 -13 87 -106 98 -96 4 5 5 3 2 -3 -9 -15 111 -127 125 -118 6 4
8 3 5 -3 -6 -10 71 -88 378 -379 99 -93 245 -232 325 -307 147 -140 168 -164
133 -153 -113 36 -412 56 -530 36 -87 -14 -196 -65 -240 -111 -126 -135 -129
-391 -7 -683 19 -44 33 -81 31 -82 -1 -1 -65 45 -141 102 -584 437 -1263 870
-1721 1096 -561 277 -976 363 -1180 243 -56 -32 -182 -167 -225 -240 -49 -82
-66 -127 -81 -218 -32 -193 51 -414 224 -594 33 -35 58 -65 56 -67 -2 -2 -38
2 -79 9 -339 59 -780 89 -1180 81 -162 -3 -320 -8 -350 -11 -165 -17 -386 -69
-513 -120 -346 -139 -471 -456 -296 -751 43 -74 180 -214 283 -289 364 -267
1009 -523 1858 -736 238 -59 551 -129 736 -163 74 -13 136 -26 138 -29 3 -3
-23 -8 -58 -12 -274 -28 -590 -106 -775 -191 -136 -62 -253 -158 -301 -249
-24 -44 -27 -61 -27 -145 0 -87 3 -101 33 -165 43 -91 106 -150 230 -214 l97
-50 -3498 -1 c-3134 0 -3501 -2 -3535 -15 -94 -40 -145 -144 -128 -259 16
-106 99 -139 175 -71 l38 35 20262 0 c17719 0 20266 2 20290 15 38 19 61 71
61 139 0 62 -17 113 -45 136 -16 13 -743 16 -6364 20 l-6345 5 -49 60 c-26 33
-71 95 -99 138 l-51 77 -3996 0 c-2629 0 -4024 3 -4077 10 -415 52 -747 342
-860 750 -32 117 -43 315 -25 441 42 281 205 546 434 701 79 53 226 122 305
143 118 30 265 34 1180 35 l912 0 0 145 0 145 -3227 3 c-1776 1 -3610 2 -4076
2 l-848 0 -10 40 c-75 280 -343 1109 -507 1570 -73 204 -219 588 -279 735 -20
47 -48 117 -64 157 -15 39 -41 100 -57 135 -17 35 -44 97 -61 138 -77 181
-194 419 -204 413 -6 -3 -7 -1 -3 5 21 34 -427 812 -463 804 -7 -1 -10 2 -6 8
13 21 -201 279 -317 382 -127 112 -247 184 -354 212 -136 34 -272 29 -372 -14
-70 -31 -144 -110 -185 -197 -45 -96 -62 -163 -78 -295 -11 -95 -8 -270 7
-403 7 -63 -8 -43 -30 40 -18 70 -112 342 -185 532 -120 315 -335 788 -354
776 -6 -3 -7 -1 -3 6 4 6 -11 46 -35 89 -23 42 -56 102 -72 132 -39 70 -114
191 -188 301 -119 178 -328 417 -351 403 -6 -4 -8 -3 -4 4 7 12 -70 79 -163
142 -187 125 -396 169 -583 121 -157 -40 -252 -115 -304 -238 -27 -65 -29 -75
-29 -218 0 -130 4 -164 28 -260 32 -128 114 -348 128 -340 5 4 6 -1 3 -9 -3
-8 26 -76 64 -150 38 -75 68 -136 67 -136 -2 0 -56 52 -122 116 -297 291 -758
685 -1063 910 -256 189 -388 277 -402 268 -6 -4 -8 -3 -5 4 8 12 -206 143
-391 240 -370 193 -727 285 -972 252z"/>
<path d="M15571 7920 c-149 -39 -258 -107 -376 -232 -280 -297 -336 -789 -133
-1169 50 -94 142 -206 223 -272 68 -55 191 -118 280 -144 57 -17 233 -18 3113
-21 l3052 -2 0 -435 0 -435 73 58 c201 163 270 211 287 199 9 -7 86 -65 171
-129 86 -65 157 -118 160 -118 2 0 4 188 3 418 0 229 1 423 4 430 3 9 58 12
226 12 159 0 225 3 234 12 18 18 14 56 -7 68 -12 6 -107 10 -240 10 l-221 0 0
558 c0 572 -3 612 -39 604 -7 -1 -10 2 -7 7 9 14 -50 55 -109 77 -46 17 -83
19 -450 19 -397 0 -400 0 -442 -23 -24 -12 -43 -29 -43 -37 0 -13 27 -15 173
-16 94 -1 180 -1 189 0 9 1 22 -7 27 -18 8 -13 11 -208 11 -595 l0 -576 -1723
0 c-1917 0 -1769 -5 -1923 70 -90 44 -200 138 -266 228 -49 66 -119 214 -142
298 -24 90 -34 229 -25 336 27 304 198 569 444 688 155 75 -28 70 2514 70
l2281 0 6 25 c4 15 1 32 -6 40 -11 13 -440 15 -3629 14 -3542 0 -3618 0 -3690
-19z"/>
<path d="M33545 7829 c-144 -118 -304 -236 -435 -323 -123 -82 -299 -176 -331
-176 -26 0 -24 -8 16 -64 19 -27 35 -53 35 -56 0 -15 -207 -104 -252 -108 -27
-2 -48 -6 -48 -7 0 -1 51 -51 112 -111 329 -319 392 -381 521 -519 211 -225
551 -630 542 -645 -2 -3 -185 2 -407 11 -221 8 -404 15 -405 14 -1 0 47 -42
108 -93 60 -51 109 -97 109 -103 0 -5 -29 -61 -64 -124 -35 -63 -62 -115 -59
-115 6 0 748 187 775 196 15 4 15 8 2 39 -21 51 -18 154 7 222 25 65 91 137
154 168 59 29 214 28 270 -2 57 -30 111 -88 143 -152 23 -48 27 -68 27 -141 0
-72 -4 -93 -28 -142 -68 -139 -229 -210 -367 -161 -30 11 -62 23 -70 27 -12 5
-46 -46 -152 -231 -75 -131 -135 -239 -134 -240 2 -2 54 17 116 42 63 24 115
43 116 42 1 -1 22 -42 47 -92 27 -54 47 -84 50 -75 3 8 24 87 46 175 22 88 46
180 54 205 l13 44 75 -119 c171 -270 352 -596 489 -883 l64 -133 85 2 c292 7
544 113 692 291 73 88 115 177 149 313 l17 69 -142 166 c-585 683 -1091 1415
-1507 2180 -132 241 -185 350 -258 525 -35 83 -66 153 -69 157 -4 4 -51 -29
-106 -73z"/>
<path d="M22562 5515 c-43 -13 -82 -40 -82 -57 0 -4 84 -8 186 -8 173 0 185 1
173 17 -8 9 -36 27 -64 39 -58 27 -144 31 -213 9z"/>
<path d="M28284 5215 c-214 -215 -370 -397 -358 -416 4 -7 3 -9 -3 -6 -14 9
-47 -29 -37 -44 4 -8 3 -10 -4 -5 -12 7 -92 -105 -92 -129 0 -14 267 -228 286
-228 7 0 11 -4 9 -8 -3 -4 52 -53 122 -109 71 -56 130 -106 131 -111 2 -5 -86
-9 -214 -9 -194 0 -216 2 -198 15 10 8 24 15 31 15 18 0 33 34 33 73 0 48 -55
95 -202 175 -125 68 -486 244 -560 273 -27 10 -76 33 -109 50 l-62 31 -296 2
c-389 4 -600 29 -996 117 -214 47 -404 109 -482 155 -31 19 -57 33 -58 32 -2
-2 -16 -26 -32 -53 -42 -72 -80 -170 -92 -240 -19 -115 -21 -131 -21 -265 -1
-139 16 -267 43 -332 l16 -37 547 -1 c301 0 550 -2 552 -5 3 -3 -594 -5 -1326
-5 l-1332 0 0 -145 0 -145 2569 0 2570 0 148 -117 c81 -65 285 -227 451 -360
167 -134 308 -240 313 -237 5 3 8 1 7 -5 -4 -13 267 -231 290 -233 9 0 24 -2
32 -3 28 -2 59 18 71 47 19 46 -25 195 -121 403 -18 39 -55 120 -82 180 -80
173 -217 445 -226 445 -23 0 -203 145 -363 292 -58 54 -109 95 -113 93 -3 -3
-4 -2 -1 1 2 4 -44 59 -104 123 -60 64 -159 177 -221 251 -62 74 -117 134
-122 132 -5 -1 -7 2 -3 8 4 6 -9 30 -27 53 -85 104 -201 298 -223 370 l-12 42
-129 -130z"/>
</g>
</svg>
